<svg width="48" height="60" viewBox="0 0 48 60" fill="none" xmlns="http://www.w3.org/2000/svg">
<path fill-rule="evenodd" clip-rule="evenodd" d="M44 39.5006C44 50.8225 34.8216 60 23.5 60C12.1784 60 3 50.8225 3 39.5006C3 28.1787 12.1784 19 23.5 19C34.8216 19 44 28.1787 44 39.5006Z" fill="#DDCD8A"/>
<path fill-rule="evenodd" clip-rule="evenodd" d="M17 52.5C17 53.8805 15.8805 55 14.5 55C13.1195 55 12 53.8805 12 52.5C12 51.1195 13.1195 50 14.5 50C15.8805 50 17 51.1195 17 52.5Z" fill="#B87BFF"/>
<path fill-rule="evenodd" clip-rule="evenodd" d="M10.0035 46H10C10.8863 52.1697 17.2681 55.8594 22.0841 55.9907C26.9025 56.1231 35.285 54.937 37 46.6302H36.9894C28.1027 50.6381 17.4844 49.7405 10.0035 46Z" fill="#9AF7E1"/>
<path fill-rule="evenodd" clip-rule="evenodd" d="M36 46H35.9899C29.2632 48.9404 21.4986 49.0287 15.0079 47.2167L15 47.2179C21.8064 50.1135 31.4864 48.4817 30.5529 53C33.0916 51.7351 35.2372 49.5837 36 46Z" fill="#90D5E0"/>
<path fill-rule="evenodd" clip-rule="evenodd" d="M22.7597 56C22.5271 56 22.3071 55.9976 22.1034 55.9916C19.6112 55.924 16.8006 54.9137 14.5851 53.2879C12.7793 51.9638 10.5186 49.6367 10 46.0652L10.4144 46C11.293 52.0507 17.773 55.4363 22.1127 55.5534C25.877 55.656 34.8423 54.9885 36.5902 46.6011L37 46.694C35.281 54.939 26.9316 56 22.7597 56Z" fill="#5C9988"/>
<path fill-rule="evenodd" clip-rule="evenodd" d="M9 19C9 20.1047 8.10472 21 6.99903 21C5.8943 21 5 20.1047 5 19C5 17.8953 5.8943 17 6.99903 17C8.10472 17 9 17.8953 9 19Z" fill="#D3DD92"/>
<path fill-rule="evenodd" clip-rule="evenodd" d="M7.06084 32.5591C7.06084 32.5591 6.62788 10.1971 8.07188 7.1356C9.51707 4.07292 17.465 -1.62454 28.4484 0.440497C39.4306 2.50554 44.7784 8.34602 44.9943 11.4087C45.2114 14.4702 39.1416 31.1347 38.2025 35.052C37.2646 38.9681 36.5403 40.4634 31.8449 41.6739C27.1472 42.8843 20.8615 43.5261 16.8161 42.4576C12.7684 41.389 10.1683 38.8972 9.01096 37.6147C7.85599 36.3334 7.09506 35.0532 7.06084 32.5591Z" fill="#9AF7E1"/>
<path fill-rule="evenodd" clip-rule="evenodd" d="M40.4988 33.528C35.1567 31.2918 28.8833 29.9931 21.8011 30C14.0127 30.0081 5.89992 30.5657 0 36.2109C0 36.2109 1.3037 43.1409 9.13057 46.8293C16.9574 50.5189 28.7585 51.4124 38.2007 47.2207C47.6429 43.029 48 38.6698 48 38.6698C48 38.6698 45.8408 35.7641 40.4988 33.528Z" fill="#B87BFF"/>
<path fill-rule="evenodd" clip-rule="evenodd" d="M21.2093 30.0092C15.4642 29.9017 9.49922 30.7417 7 32.2701C7.03357 34.8334 7.77905 36.149 8.91348 37.4659C10.0479 38.7828 12.6004 41.3448 16.5709 42.443C20.5414 43.54 26.709 42.8816 31.3173 41.6376C35.9256 40.3936 36.6352 38.8569 37.5566 34.831C37.6527 34.4091 37.8055 33.8427 38 33.1652C32.88 31.3165 27.5193 30.1275 21.2093 30.0092Z" fill="#7E66BF"/>
<path fill-rule="evenodd" clip-rule="evenodd" d="M25.0819 9.02587C19.9785 8.60215 15.5897 13.3866 16.0306 23.1287C16.4535 32.51 19.3738 37.0618 21.401 38.3258C22.9694 39.305 24.7655 39.2255 25.7831 38.035C27.5994 35.9093 29.5257 31.8358 31.0065 27.4823C32.4885 23.1287 33.4747 9.7214 25.0819 9.02587Z" fill="#FF789E"/>
<path fill-rule="evenodd" clip-rule="evenodd" d="M17.7905 18.1992C18.9921 17.2401 20.9908 19.9861 21.5084 21.283C22.0284 22.581 22.2867 24.7328 21.5084 24.9707C20.7302 25.2108 18.5688 23.9356 17.7905 22.581C17.0123 21.2265 16.4923 19.2344 17.7905 18.1992Z" fill="#F2FE99"/>
<path fill-rule="evenodd" clip-rule="evenodd" d="M25.7072 38.058C27.5457 35.9788 29.4956 31.9946 30.9946 27.7365C32.2403 24.2004 33.1397 14.5593 28.5428 11C31.4238 13.316 27.8478 16.8068 27.8512 22.0377C27.8558 27.6285 19.5908 35.7884 22.699 38.9135C23.855 39.1596 24.9781 38.8822 25.7072 38.058Z" fill="#C16BB9"/>
<path fill-rule="evenodd" clip-rule="evenodd" d="M28.5035 11.502C28.5015 11.501 28.4985 11.499 28.4965 11.498C28.4985 11.499 28.5015 11.501 28.5035 11.502Z" fill="#C16BB9"/>
<path fill-rule="evenodd" clip-rule="evenodd" d="M26.1268 21.2048C25.0836 22.3515 24.789 24.7883 25.1428 25.6589C25.4965 26.5294 28.5957 25.715 29.925 23.4313C31.253 21.1487 31.253 19.7237 30.4562 19.1704C29.6594 18.617 27.7313 19.4422 26.1268 21.2048Z" fill="#F2FE99"/>
<path fill-rule="evenodd" clip-rule="evenodd" d="M21.5511 21.2922C21.522 21.1971 21.4882 21.0992 21.4521 21C21.6489 22.3742 21.6093 23.7526 21.076 23.9621C20.8291 24.06 20.439 23.958 20 23.7181C20.7045 24.4583 21.5255 24.9752 21.9028 25C22.0926 24.5575 22.0192 22.7974 21.5511 21.2922Z" fill="#D3DD92"/>
<path fill-rule="evenodd" clip-rule="evenodd" d="M29.7539 19.0478C29.7178 19.0178 29.6509 19.0011 29.5674 19C29.4654 19.6843 29.1871 20.533 28.6987 21.5484C28.0526 22.8871 26.918 23.7336 26.0029 24.0502C25.9916 24.4379 26.0132 24.77 26.0709 24.9844C26.0998 24.9922 26.1482 25 26.2162 25C26.9767 25 28.4174 24.1935 29.1469 22.6804C30.13 20.643 30.161 19.3877 29.7539 19.0478Z" fill="#D3DD92"/>
<path fill-rule="evenodd" clip-rule="evenodd" d="M47 30C47 31.105 46.104 32 45.0006 32C43.896 32 43 31.105 43 30C43 28.895 43.896 28 45.0006 28C46.104 28 47 28.895 47 30Z" fill="#FF789E"/>
<mask id="mask0" mask-type="alpha" maskUnits="userSpaceOnUse" x="7" y="0" width="38" height="44">
<path fill-rule="evenodd" clip-rule="evenodd" d="M7 0H45V44H7V0Z" fill="white"/>
</mask>
<g mask="url(#mask0)">
<path fill-rule="evenodd" clip-rule="evenodd" d="M23.7724 0.424066C15.2742 0.424066 9.58263 5.11231 8.46625 7.53536C7.07456 10.558 7.48169 32.9708 7.48519 33.197V33.1982C7.51902 35.6212 8.19794 36.8604 9.36098 38.1821C10.8273 39.8477 13.3389 42.0399 16.975 43.0235C20.9832 44.1072 27.2732 43.4063 31.7271 42.2295C36.2509 41.0351 36.9322 39.6498 37.8631 35.6766C38.1851 34.2996 39.1078 31.3983 40.1763 28.0388C42.1968 21.6861 44.7107 13.7797 44.573 11.7889C44.3829 9.03371 39.4391 3.0026 28.3826 0.872865C26.7693 0.561886 25.2294 0.424066 23.7724 0.424066ZM21.8406 44C20.0558 44 18.3434 43.8351 16.8653 43.4358C13.1277 42.4251 10.5497 40.1752 9.04485 38.4648C7.84798 37.1043 7.09789 35.7496 7.0629 33.2053C7.0454 32.27 6.64994 10.4649 8.08362 7.35513C9.43098 4.42792 17.2095 -1.71509 28.4631 0.453514C39.3528 2.55145 44.7655 8.44002 44.9942 11.7595C45.1376 13.8315 42.6097 21.7815 40.5776 28.1695C39.5126 31.5208 38.5922 34.4138 38.2737 35.7756C37.3183 39.8548 36.5636 41.3932 31.8344 42.6418C29.0709 43.3722 25.3228 44 21.8406 44Z" fill="#5C9988"/>
</g>
<path fill-rule="evenodd" clip-rule="evenodd" d="M15 42C15 44.2094 13.2091 46 10.9994 46C8.792 46 7 44.2094 7 42C7 39.7906 8.792 38 10.9994 38C13.2091 38 15 39.7906 15 42Z" fill="#F2FE99"/>
<path fill-rule="evenodd" clip-rule="evenodd" d="M14.5708 40C14.5073 42.3638 12.9933 44.3198 11 44.7567C11.338 44.9131 11.7068 45 12.094 45C13.696 45 15 43.5249 15 41.7126C15 41.0846 14.8412 40.4994 14.5708 40Z" fill="#D3DD92"/>
<path fill-rule="evenodd" clip-rule="evenodd" d="M47 38.6886C46.2711 37.87 44.1821 35.8117 40.3312 34.1427C40.2218 34.0955 40.1101 34.0484 39.995 34C39.8234 34.6016 39.7002 35.0639 39.6242 35.3977C39.4238 36.2611 39.228 37.0255 39 37.7084C40.4464 39.447 41.5461 41.9205 42.0309 44C45.6803 41.6126 46.719 39.506 47 38.6886Z" fill="#7E66BF"/>
<path fill-rule="evenodd" clip-rule="evenodd" d="M11.5478 32C11.226 28.0247 10.9585 24.029 11.0053 20.0153C11.0386 16.0026 11.3814 11.9855 11.9658 8L14 8.30275C13.1986 12.1843 12.629 16.1077 12.3615 20.0604C12.0853 24.0121 12.1137 27.9896 12.2012 31.9729L11.5478 32Z" fill="white"/>
<path fill-rule="evenodd" clip-rule="evenodd" d="M24.9707 9.4238C23.0258 9.4238 21.2623 10.1482 19.8371 11.5397C17.411 13.9084 16.209 18.0256 16.452 23.134C16.8681 31.9208 19.6546 36.6044 21.9133 37.9467C23.4722 38.8713 25.2311 38.7694 26.1913 37.6998C27.935 35.7582 29.9415 31.895 31.562 27.3647C32.614 24.4226 33.4824 16.7956 30.7238 12.4959C29.5392 10.6491 27.8164 9.62393 25.6042 9.44838C25.3915 9.432 25.1811 9.4238 24.9707 9.4238ZM24.0767 39C23.3025 39 22.476 38.773 21.7006 38.3119C19.3501 36.9157 16.4566 32.1092 16.0312 23.1539C15.7824 17.9226 17.0297 13.6896 19.543 11.2355C21.2112 9.60754 23.3141 8.84216 25.6368 9.02707C27.9885 9.21198 29.8182 10.3015 31.0784 12.2665C32.6617 14.7359 32.9976 18.0467 33 20.3897C33.0035 23.4851 32.4408 26.1593 31.9584 27.5087C30.2972 32.156 28.3082 35.9747 26.5028 37.9842C25.8995 38.6571 25.0276 39 24.0767 39Z" fill="#9E5F9B"/>
</svg>
