<svg width="20" height="21" viewBox="0 0 20 21" fill="none" xmlns="http://www.w3.org/2000/svg">
<mask id="mask0" mask-type="alpha" maskUnits="userSpaceOnUse" x="0" y="0" width="20" height="21">
<path fill-rule="evenodd" clip-rule="evenodd" d="M0 0H19.8968V20.1087H0V0Z" fill="white"/>
</mask>
<g mask="url(#mask0)">
<path fill-rule="evenodd" clip-rule="evenodd" d="M9.53341 16.9336C12.2334 14.9336 15.0334 12.1336 17.0334 9.43364C17.2334 13.7336 13.8334 17.2336 9.53341 16.9336ZM2.23341 17.7336C2.03341 17.5336 1.93241 16.5336 2.63341 15.0336C3.23341 15.9336 4.03341 16.7336 4.93241 17.3326C3.33341 18.0336 2.43241 18.0336 2.23341 17.7336ZM10.0334 3.03364C12.8334 3.03364 15.2334 4.73364 16.3334 7.03364C14.0334 10.7336 10.3334 14.3326 7.13341 16.2336C4.83341 15.1336 3.13341 12.7336 3.13341 9.93364C3.03341 6.13364 6.13341 3.03364 10.0334 3.03364ZM17.7334 2.23364C17.9324 2.43364 18.0334 3.43364 17.3334 4.93364C16.7334 4.03364 15.9324 3.23364 15.0334 2.63364C16.6334 1.93364 17.5334 1.93364 17.7334 2.23364ZM19.1334 0.73364C17.9324 -0.46636 15.6334 -0.16736 12.7334 1.43364C11.8334 1.23364 10.9324 1.03364 9.93241 1.03364C4.93241 1.03364 0.932411 5.03364 0.932411 10.0336C0.932411 11.0336 1.13341 11.9336 1.43241 12.9336C-0.166589 15.8326 -0.466589 18.1336 0.733411 19.3326C2.33341 20.9336 5.23341 19.7336 7.13341 18.6336C8.03341 18.8326 8.93241 19.0336 9.93241 19.0336C14.9324 19.0336 18.9324 15.0336 18.9324 10.0336C18.9324 9.03364 18.7334 8.13364 18.4324 7.13364C20.1334 4.23364 20.3334 1.93364 19.1334 0.73364Z" fill="white"/>
</g>
<path fill-rule="evenodd" clip-rule="evenodd" d="M9.03339 7.03326C9.63339 7.03326 10.0334 7.43326 10.0334 8.03326C10.0334 8.63426 9.63339 9.03326 9.03339 9.03326C8.43239 9.03326 8.03339 8.53326 8.03339 8.03326C8.03339 7.53326 8.43239 7.03326 9.03339 7.03326ZM9.03339 11.0333C10.7334 11.0333 12.0334 9.73326 12.0334 8.03326C12.0334 6.33326 10.7334 5.03326 9.03339 5.03326C7.33339 5.03326 6.03339 6.33326 6.03339 8.03326C6.03339 9.73326 7.33339 11.0333 9.03339 11.0333Z" fill="white"/>
</svg>
