<svg width="277" height="42" viewBox="0 0 277 42" fill="none" xmlns="http://www.w3.org/2000/svg">
<mask id="mask0" mask-type="alpha" maskUnits="userSpaceOnUse" x="0" y="1" width="29" height="41">
<path fill-rule="evenodd" clip-rule="evenodd" d="M0 1.6283H28.025V42H0V1.6283Z" fill="white"/>
</mask>
<g mask="url(#mask0)">
<path fill-rule="evenodd" clip-rule="evenodd" d="M22.1 11.9926C21.4061 11.1244 20.4653 10.4816 19.2757 10.0663C18.0881 9.65096 16.9618 9.44225 15.9029 9.44225C15.2828 9.44225 14.6416 9.5153 13.9835 9.6593C13.3254 9.80331 12.7031 10.0329 12.121 10.3376C11.5346 10.6444 11.06 11.0535 10.6951 11.5585C10.3281 12.0657 10.1446 12.6814 10.1446 13.4035C10.1446 14.5618 10.5833 15.4467 11.4608 16.0624C12.3382 16.6781 13.4435 17.2019 14.7787 17.636C16.1139 18.0702 17.5503 18.5043 19.0837 18.9384C20.6193 19.3725 22.0557 19.9882 23.3888 20.7833C24.724 21.5806 25.8313 22.6471 26.7088 23.9849C27.5863 25.3248 28.025 27.1155 28.025 29.357C28.025 31.492 27.62 33.3537 26.8164 34.9461C26.0106 36.5386 24.9243 37.8597 23.5533 38.9074C22.1823 39.9572 20.5919 40.7335 18.7842 41.2407C16.9723 41.7479 15.0613 42.0004 13.0512 42.0004C10.5306 42.0004 8.18926 41.6205 6.03146 40.8609C3.87366 40.1012 1.86351 38.8719 -0.00109863 37.1709L6.0863 30.5529C6.96377 31.7091 8.07114 32.6044 9.40421 33.2368C10.7394 33.8692 12.121 34.1864 13.5447 34.1864C14.2387 34.1864 14.9432 34.105 15.6561 33.9443C16.3691 33.7795 17.0082 33.5353 17.5756 33.2097C18.143 32.8841 18.6007 32.4709 18.9466 31.9616C19.2947 31.4545 19.4676 30.8597 19.4676 30.1709C19.4676 29.0126 19.0205 28.1006 18.124 27.4306C17.2276 26.7607 16.1033 26.193 14.7534 25.7213C13.3992 25.2538 11.9375 24.7821 10.366 24.3105C8.79041 23.8409 7.32867 23.2085 5.97662 22.4112C4.62457 21.6161 3.50032 20.5663 2.60387 19.264C1.70742 17.9616 1.26025 16.244 1.26025 14.1089C1.26025 12.0469 1.67157 10.2374 2.49419 8.68256C3.31892 7.1277 4.41364 5.82537 5.78678 4.77558C7.15571 3.72788 8.73768 2.94106 10.5306 2.41512C12.3192 1.89127 14.167 1.6283 16.0696 1.6283C18.2632 1.6283 20.383 1.93718 22.4291 2.55286C24.4772 3.16646 26.3228 4.19747 27.968 5.6438L22.1 11.9926Z" fill="#576C97"/>
</g>
<path fill-rule="evenodd" clip-rule="evenodd" d="M41.5698 0.000244141V18.2328H41.6795C41.863 17.7277 42.1731 17.2206 42.6118 16.7134C43.0506 16.2084 43.58 15.7555 44.2022 15.3568C44.8224 14.9603 45.5543 14.6347 46.3959 14.3822C47.2375 14.1296 48.1508 14.0002 49.138 14.0002C51.2198 14.0002 52.903 14.3175 54.1813 14.9499C55.4616 15.5843 56.4593 16.4609 57.1701 17.5816C57.8831 18.7045 58.3682 20.0256 58.6255 21.5429C58.8808 23.0623 59.0094 24.709 59.0094 26.4809V41.0235H50.7832V28.1088C50.7832 27.3491 50.7537 26.5643 50.701 25.7483C50.6461 24.9344 50.4816 24.1851 50.2074 23.4964C49.9332 22.8097 49.5134 22.2483 48.946 21.8142C48.3786 21.3801 47.5644 21.1651 46.5056 21.1651C45.4446 21.1651 44.5861 21.353 43.928 21.7328C43.2699 22.1147 42.7658 22.6198 42.4178 23.2543C42.0697 23.8846 41.8441 24.6004 41.7344 25.3956C41.6226 26.1929 41.5698 27.0235 41.5698 27.8917V41.0235H33.3436V0.000244141H41.5698Z" fill="#576C97"/>
<mask id="mask1" mask-type="alpha" maskUnits="userSpaceOnUse" x="0" y="0" width="277" height="42">
<path fill-rule="evenodd" clip-rule="evenodd" d="M0 42H277V0H0V42Z" fill="white"/>
</mask>
<g mask="url(#mask1)">
<path fill-rule="evenodd" clip-rule="evenodd" d="M64.9302 41.0253H73.1564V14.6532H64.9302V41.0253Z" fill="#576C97"/>
<path fill-rule="evenodd" clip-rule="evenodd" d="M97.2332 21.1644H89.9921V29.9551C89.9921 30.6794 90.03 31.3389 90.1017 31.9337C90.1756 32.5306 90.3401 33.0461 90.5974 33.4802C90.8527 33.9143 91.245 34.2524 91.7765 34.4862C92.306 34.7199 93.0105 34.8389 93.8879 34.8389C94.3266 34.8389 94.9025 34.793 95.6133 34.7011C96.3263 34.6114 96.8662 34.4048 97.2332 34.0771V40.8621C96.3178 41.1877 95.3665 41.4027 94.3794 41.5133C93.3943 41.6218 92.4241 41.674 91.4749 41.674C90.0828 41.674 88.8045 41.53 87.6339 41.2399C86.4653 40.9519 85.4402 40.4906 84.5628 39.8582C83.6853 39.2238 83.0019 38.4015 82.5083 37.3872C82.0126 36.3749 81.768 35.1457 81.768 33.6993V21.1644H76.5032V14.6528H81.768V6.83887H89.9921V14.6528H97.2332V21.1644Z" fill="#576C97"/>
<path fill-rule="evenodd" clip-rule="evenodd" d="M127.229 18.8837H132.932C133.7 18.8837 134.441 18.8127 135.153 18.6666C135.868 18.5226 136.505 18.2784 137.073 17.9341C137.64 17.5918 138.096 17.1201 138.444 16.5232C138.79 15.9263 138.965 15.1771 138.965 14.2713C138.965 13.2945 138.737 12.5077 138.279 11.9108C137.822 11.3139 137.237 10.8527 136.524 10.5271C135.812 10.2036 135.016 9.99489 134.139 9.90306C133.261 9.81332 132.42 9.76949 131.616 9.76949H127.229V18.8837ZM118.674 2.60461H133.097C135.107 2.60461 137.01 2.78619 138.8 3.14725C140.591 3.5104 142.154 4.13443 143.489 5.01934C144.825 5.90634 145.885 7.10014 146.67 8.60074C147.457 10.1034 147.849 11.9922 147.849 14.2713C147.849 16.5149 147.484 18.3974 146.752 19.9147C146.02 21.4362 145.016 22.6487 143.736 23.5504C142.458 24.4561 140.939 25.0989 139.184 25.4767C137.429 25.8586 135.529 26.0486 133.481 26.0486H127.229V41.0232H118.674V2.60461Z" fill="#576C97"/>
<path fill-rule="evenodd" clip-rule="evenodd" d="M152.291 41.0233H160.517V0H152.291V41.0233Z" fill="#576C97"/>
<path fill-rule="evenodd" clip-rule="evenodd" d="M181.137 29.4657C180.515 29.4657 179.739 29.4929 178.808 29.5471C177.874 29.6014 176.978 29.7558 176.119 30.0084C175.261 30.263 174.529 30.6407 173.925 31.1479C173.322 31.6551 173.021 32.3605 173.021 33.2642C173.021 34.2409 173.442 34.9651 174.282 35.4347C175.121 35.9064 175.999 36.1401 176.914 36.1401C177.718 36.1401 178.496 36.0316 179.247 35.8146C179.994 35.5975 180.66 35.2907 181.249 34.8921C181.831 34.4935 182.299 33.9884 182.645 33.3727C182.993 32.757 183.166 32.0349 183.166 31.2022V29.4657H181.137ZM183.166 37.7138H183.057C182.143 39.1246 180.926 40.1369 179.412 40.7525C177.893 41.3661 176.292 41.675 174.611 41.675C173.367 41.675 172.171 41.5039 171.019 41.1616C169.867 40.8152 168.855 40.2997 167.977 39.613C167.1 38.9264 166.404 38.0769 165.891 37.0626C165.379 36.0504 165.123 34.8754 165.123 33.5355C165.123 32.0161 165.406 30.7326 165.976 29.6828C166.541 28.6351 167.307 27.7669 168.277 27.0781C169.245 26.3915 170.352 25.8572 171.597 25.4774C172.837 25.0975 174.128 24.8178 175.463 24.6384C176.794 24.4568 178.129 24.3483 179.464 24.3107C180.8 24.2752 182.034 24.2564 183.166 24.2564C183.166 22.8101 182.645 21.6622 181.605 20.8128C180.563 19.9613 179.329 19.5355 177.901 19.5355C176.549 19.5355 175.315 19.8172 174.2 20.3787C173.086 20.938 172.088 21.706 171.211 22.6828L166.823 18.2332C168.359 16.8223 170.15 15.7663 172.2 15.0587C174.244 14.3533 176.366 14.0006 178.56 14.0006C180.973 14.0006 182.955 14.2991 184.512 14.898C186.064 15.4929 187.309 16.3715 188.239 17.5277C189.174 18.6861 189.821 20.1053 190.186 21.7874C190.551 23.4696 190.736 25.4147 190.736 27.6208V41.0239H183.166V37.7138Z" fill="#576C97"/>
<path fill-rule="evenodd" clip-rule="evenodd" d="M195.89 14.6524H203.787V18.2338H203.897C204.152 17.7287 204.519 17.2195 204.993 16.7123C205.468 16.2072 206.037 15.7544 206.693 15.3578C207.352 14.9592 208.1 14.6336 208.942 14.3811C209.784 14.1285 210.699 14.0012 211.684 14.0012C213.768 14.0012 215.449 14.3185 216.729 14.9508C218.008 15.5832 219.005 16.4598 219.718 17.5805C220.431 18.7034 220.914 20.0245 221.172 21.5439C221.427 23.0611 221.555 24.7078 221.555 26.4818V41.0245H213.331V28.1077C213.331 27.3501 213.302 26.5632 213.247 25.7472C213.192 24.9353 213.028 24.184 212.753 23.4953C212.479 22.8086 212.059 22.2493 211.492 21.8152C210.925 21.3811 210.11 21.164 209.052 21.164C207.991 21.164 207.132 21.3539 206.476 21.7338C205.816 22.1136 205.314 22.6187 204.966 23.2532C204.618 23.8855 204.39 24.6014 204.283 25.3945C204.171 26.1917 204.116 27.0245 204.116 27.8927V41.0245H195.89V14.6524Z" fill="#576C97"/>
<path fill-rule="evenodd" clip-rule="evenodd" d="M245.631 24.8533C245.667 23.48 245.211 22.3029 244.26 21.3262C243.309 20.3494 242.083 19.8611 240.583 19.8611C239.672 19.8611 238.866 20.0072 238.172 20.2952C237.478 20.5853 236.884 20.9568 236.39 21.4076C235.896 21.8605 235.513 22.3843 235.238 22.9833C234.962 23.5781 234.808 24.2022 234.772 24.8533H245.631ZM252.596 36.4657C251.28 38.1291 249.615 39.4147 247.605 40.3184C245.593 41.2221 243.509 41.675 241.353 41.675C239.305 41.675 237.377 41.3494 235.567 40.6983C233.758 40.0471 232.184 39.1163 230.851 37.9037C229.516 36.6932 228.465 35.2364 227.698 33.5355C226.93 31.8366 226.546 29.9374 226.546 27.8378C226.546 25.7403 226.93 23.8411 227.698 22.1401C228.465 20.4413 229.516 18.9824 230.851 17.7719C232.184 16.5593 233.758 15.6285 235.567 14.9774C237.377 14.3262 239.305 14.0006 241.353 14.0006C243.254 14.0006 244.981 14.3262 246.536 14.9774C248.088 15.6285 249.404 16.5593 250.484 17.7719C251.562 18.9824 252.393 20.4413 252.977 22.1401C253.564 23.8411 253.855 25.7403 253.855 27.8378V30.3882H234.772C235.101 31.9431 235.814 33.1828 236.911 34.1053C238.008 35.0277 239.36 35.489 240.969 35.489C242.321 35.489 243.465 35.1905 244.397 34.5936C245.327 33.9967 246.141 33.2287 246.837 32.2895L252.596 36.4657Z" fill="#576C97"/>
<path fill-rule="evenodd" clip-rule="evenodd" d="M277 21.1644H269.759V29.9551C269.759 30.6794 269.797 31.3389 269.869 31.9337C269.943 32.5306 270.107 33.0461 270.365 33.4802C270.62 33.9143 271.012 34.2524 271.544 34.4862C272.073 34.7199 272.778 34.8389 273.655 34.8389C274.094 34.8389 274.67 34.793 275.381 34.7011C276.093 34.6114 276.633 34.4048 277 34.0771V40.8621C276.085 41.1877 275.134 41.4027 274.147 41.5133C273.162 41.6218 272.191 41.674 271.242 41.674C269.85 41.674 268.572 41.53 267.401 41.2399C266.233 40.9519 265.207 40.4906 264.33 39.8582C263.453 39.2238 262.769 38.4015 262.276 37.3872C261.78 36.3749 261.535 35.1457 261.535 33.6993V21.1644H256.27V14.6528H261.535V6.83887H269.759V14.6528H277V21.1644Z" fill="#576C97"/>
<path fill-rule="evenodd" clip-rule="evenodd" d="M74.7768 5.67239C74.7768 8.80506 72.2098 11.345 69.0437 11.345C65.8777 11.345 63.3107 8.80506 63.3107 5.67239C63.3107 2.53971 65.8777 -0.000244141 69.0437 -0.000244141C72.2098 -0.000244141 74.7768 2.53971 74.7768 5.67239Z" fill="#FF789E"/>
<path fill-rule="evenodd" clip-rule="evenodd" d="M72.9331 3.32031C72.8339 6.56778 70.4546 9.25591 67.3245 9.85699C67.856 10.0699 68.4339 10.1909 69.0414 10.1909C71.5599 10.1909 73.608 8.16229 73.608 5.67243C73.608 4.81047 73.357 4.00487 72.9331 3.32031Z" fill="#C16BB9"/>
</g>
</svg>
