<svg width="59" height="38" viewBox="0 0 59 38" fill="none" xmlns="http://www.w3.org/2000/svg">
<path fill-rule="evenodd" clip-rule="evenodd" d="M8.16801 4.47953C7.91078 4.15572 7.56277 3.91564 7.12396 3.76029C6.68415 3.60495 6.26956 3.52727 5.87716 3.52727C5.64817 3.52727 5.41212 3.55451 5.16801 3.60797C4.9249 3.66144 4.69491 3.74718 4.48005 3.86117C4.26317 3.97616 4.08764 4.12848 3.95247 4.31712C3.8173 4.50676 3.74972 4.73676 3.74972 5.00609C3.74972 5.43985 3.91111 5.76971 4.23593 5.9997C4.56074 6.2297 4.96929 6.42539 5.46155 6.5878C5.95584 6.7492 6.48644 6.91161 7.05436 7.07402C7.62026 7.23642 8.15086 7.46541 8.64515 7.76299C9.13741 8.06057 9.54596 8.45902 9.87077 8.95835C10.1956 9.45969 10.358 10.1285 10.358 10.9657C10.358 11.7627 10.2077 12.4587 9.91213 13.0538C9.61354 13.648 9.21105 14.1413 8.70567 14.5327C8.19827 14.9251 7.61018 15.2156 6.94239 15.4042C6.27258 15.5939 5.56646 15.6877 4.82403 15.6877C3.89195 15.6877 3.02645 15.5465 2.22853 15.262C1.43162 14.9785 0.689187 14.5196 -0.000793457 13.884L2.24971 11.4116C2.57352 11.8444 2.98206 12.1783 3.47635 12.4143C3.96962 12.6514 4.48005 12.7694 5.0056 12.7694C5.26283 12.7694 5.52309 12.7391 5.78738 12.6786C6.04965 12.6181 6.28671 12.5263 6.49652 12.4042C6.70533 12.2822 6.8748 12.1288 7.00291 11.9392C7.13102 11.7495 7.19457 11.5266 7.19457 11.2694C7.19457 10.8366 7.03015 10.4957 6.69827 10.2465C6.3674 9.99534 5.9518 9.7835 5.45247 9.60697C4.95214 9.43246 4.41145 9.25694 3.83041 9.08142C3.24938 8.90489 2.70869 8.66884 2.20936 8.37126C1.70903 8.07368 1.29342 7.68229 0.961548 7.19607C0.63068 6.70885 0.465246 6.06729 0.465246 5.26937C0.465246 4.50071 0.618575 3.82384 0.921198 3.24281C1.22584 2.66278 1.63236 2.17556 2.13774 1.78416C2.64413 1.39176 3.2292 1.09822 3.89195 0.902523C4.55368 0.706826 5.2366 0.608978 5.93869 0.608978C6.74972 0.608978 7.5325 0.722966 8.29007 0.95296C9.04663 1.18295 9.72854 1.56728 10.3368 2.10797L8.16801 4.47953Z" fill="white"/>
<path fill-rule="evenodd" clip-rule="evenodd" d="M15.3632 0.000198364V6.81023H15.4035C15.4711 6.62159 15.5871 6.43195 15.7495 6.2423C15.9109 6.05367 16.1066 5.8842 16.3366 5.73692C16.5656 5.58763 16.8359 5.46557 17.1476 5.37176C17.4573 5.27694 17.7963 5.22953 18.1604 5.22953C18.9301 5.22953 19.5515 5.34755 20.0246 5.5846C20.4977 5.82065 20.8659 6.14849 21.1302 6.56712C21.3934 6.98676 21.572 7.48003 21.6668 8.04695C21.7616 8.61386 21.809 9.22919 21.809 9.89194V15.323H18.7687V10.4992C18.7687 10.2157 18.7576 9.9222 18.7384 9.61756C18.7172 9.31393 18.6577 9.0335 18.5558 8.77627C18.454 8.52005 18.2986 8.31023 18.0898 8.14782C17.88 7.98642 17.5784 7.90471 17.188 7.90471C16.7956 7.90471 16.4778 7.97633 16.2347 8.11756C15.9916 8.25979 15.805 8.44843 15.6779 8.68548C15.5488 8.92153 15.4651 9.18884 15.4247 9.48541C15.3844 9.78299 15.3632 10.0937 15.3632 10.4185V15.323H12.3228V0.000198364H15.3632Z" fill="white"/>
<path fill-rule="evenodd" clip-rule="evenodd" d="M23.998 15.3238H27.0384V5.47343H23.998V15.3238Z" fill="white"/>
<path fill-rule="evenodd" clip-rule="evenodd" d="M35.936 7.90522H33.2608V11.1887C33.2608 11.459 33.2739 11.7062 33.3012 11.9281C33.3274 12.151 33.3889 12.3437 33.4827 12.5061C33.5776 12.6685 33.7228 12.7936 33.9195 12.8813C34.1142 12.9691 34.3755 13.0125 34.6993 13.0125C34.8627 13.0125 35.0745 12.9963 35.3378 12.962C35.6011 12.9278 35.7998 12.8511 35.936 12.729V15.262C35.5981 15.384 35.246 15.4647 34.8819 15.5061C34.5177 15.5465 34.1586 15.5666 33.8076 15.5666C33.2941 15.5666 32.821 15.5122 32.3883 15.4042C31.9565 15.2973 31.5782 15.1238 31.2524 14.8877C30.9286 14.6507 30.6764 14.343 30.4928 13.9647C30.3113 13.5865 30.2205 13.1275 30.2205 12.5878V7.90522H28.2736V5.47314H30.2205V2.55383H33.2608V5.47314H35.936V7.90522Z" fill="white"/>
<path fill-rule="evenodd" clip-rule="evenodd" d="M3.64642 29.2459H5.75469C6.03815 29.2459 6.31152 29.2197 6.5748 29.1652C6.83909 29.1107 7.07413 29.0199 7.28395 28.8908C7.49276 28.7627 7.66223 28.5872 7.79135 28.3643C7.91845 28.1413 7.98402 27.8609 7.98402 27.523C7.98402 27.1588 7.89928 26.8643 7.73082 26.6413C7.56135 26.4184 7.34548 26.2459 7.08119 26.1248C6.81892 26.0038 6.52537 25.9251 6.19955 25.8918C5.87574 25.8585 5.56404 25.8414 5.26747 25.8414H3.64642V29.2459ZM0.484009 23.1652H5.81421C6.55866 23.1652 7.26075 23.2328 7.92248 23.3679C8.58523 23.5031 9.16223 23.7361 9.65551 24.067C10.1488 24.3989 10.5412 24.8447 10.8307 25.4046C11.1222 25.9665 11.2675 26.6716 11.2675 27.523C11.2675 28.3612 11.1323 29.0633 10.861 29.6312C10.5916 30.1992 10.2204 30.6521 9.7473 30.989C9.2742 31.3269 8.71233 31.567 8.06472 31.7082C7.41609 31.8515 6.713 31.9211 5.95644 31.9211H3.64642V37.5156H0.484009V23.1652Z" fill="white"/>
<path fill-rule="evenodd" clip-rule="evenodd" d="M12.9079 37.5152H15.9493V22.1924H12.9079V37.5152Z" fill="white"/>
<path fill-rule="evenodd" clip-rule="evenodd" d="M23.5701 33.1982C23.3391 33.1982 23.0526 33.2082 22.7087 33.2284C22.3647 33.2496 22.0328 33.3061 21.715 33.4009C21.3983 33.4957 21.128 33.638 20.904 33.8266C20.6821 34.0162 20.5701 34.2795 20.5701 34.6175C20.5701 34.9826 20.7265 35.253 21.0362 35.4285C21.3469 35.604 21.6707 35.6918 22.0086 35.6918C22.3062 35.6918 22.5937 35.6514 22.8711 35.5697C23.1475 35.489 23.3936 35.374 23.6105 35.2247C23.8263 35.0764 23.9998 34.8878 24.127 34.6578C24.2561 34.4278 24.3196 34.1585 24.3196 33.8468V33.1982H23.5701ZM24.3196 36.2799H24.2793C23.9413 36.8064 23.4925 37.1847 22.9316 37.4147C22.3717 37.6437 21.7796 37.7587 21.1572 37.7587C20.6982 37.7587 20.2564 37.6951 19.8307 37.567C19.405 37.4379 19.0298 37.2452 18.706 36.989C18.3811 36.7318 18.1249 36.415 17.9353 36.0358C17.7466 35.6575 17.6518 35.2187 17.6518 34.7183C17.6518 34.1504 17.7557 33.6723 17.9655 33.2799C18.1754 32.8875 18.4588 32.5637 18.8169 32.3074C19.175 32.0502 19.5836 31.8515 20.0436 31.7082C20.5025 31.567 20.9797 31.4621 21.4729 31.3945C21.9652 31.3269 22.4575 31.2866 22.9518 31.2735C23.445 31.2594 23.901 31.2523 24.3196 31.2523C24.3196 30.7126 24.1269 30.2829 23.7426 29.9661C23.3573 29.6484 22.9013 29.489 22.3738 29.489C21.8744 29.489 21.4185 29.5949 21.0059 29.8037C20.5943 30.0136 20.2261 30.3 19.9013 30.6652L18.2803 29.0028C18.8472 28.4762 19.5099 28.0808 20.2675 27.8175C21.023 27.5532 21.8068 27.4211 22.6179 27.4211C23.5086 27.4211 24.2419 27.5341 24.8169 27.756C25.3909 27.9789 25.8509 28.3068 26.1949 28.7395C26.5389 29.1723 26.7799 29.7019 26.9141 30.3303C27.0483 30.9587 27.1179 31.685 27.1179 32.5092V37.5156H24.3196V36.2799Z" fill="white"/>
<path fill-rule="evenodd" clip-rule="evenodd" d="M29.0226 27.6653H31.9419V29.0029H31.9812C32.075 28.8142 32.2112 28.6246 32.3867 28.435C32.5623 28.2463 32.7721 28.0769 33.0152 27.9286C33.2573 27.7803 33.5357 27.6582 33.8464 27.5634C34.1571 27.4696 34.495 27.4212 34.8592 27.4212C35.6299 27.4212 36.2512 27.5402 36.7243 27.7763C37.1974 28.0133 37.5656 28.3401 37.8279 28.7588C38.0922 29.1784 38.2707 29.6717 38.3666 30.2396C38.4604 30.8065 38.5078 31.4219 38.5078 32.0836V37.5157H35.4685V32.6908C35.4685 32.4084 35.4574 32.1149 35.4372 31.8092C35.417 31.5066 35.3555 31.2262 35.2556 30.9679C35.1537 30.7127 34.9984 30.5029 34.7896 30.3405C34.5787 30.1781 34.2781 30.0974 33.8867 30.0974C33.4954 30.0974 33.1776 30.168 32.9345 30.3102C32.6914 30.4524 32.5048 30.6411 32.3767 30.8781C32.2475 31.1142 32.1638 31.3815 32.1235 31.6781C32.0821 31.9757 32.0629 32.2863 32.0629 32.6101V37.5157H29.0226V27.6653Z" fill="white"/>
<path fill-rule="evenodd" clip-rule="evenodd" d="M47.4056 31.4757C47.4187 30.9623 47.2513 30.5235 46.8992 30.1573C46.5472 29.7931 46.0953 29.6116 45.5404 29.6116C45.2035 29.6116 44.9049 29.665 44.6497 29.774C44.3935 29.8809 44.1726 30.0201 43.99 30.1886C43.8084 30.358 43.6662 30.5537 43.5643 30.7767C43.4634 30.9986 43.4059 31.2326 43.3918 31.4757H47.4056ZM49.9799 35.8133C49.4927 36.4347 48.8784 36.9149 48.1359 37.2528C47.3915 37.5897 46.6218 37.7592 45.8249 37.7592C45.0684 37.7592 44.3562 37.6371 43.6854 37.394C43.0176 37.1509 42.4355 36.8029 41.9433 36.35C41.451 35.898 41.0626 35.3533 40.7782 34.7188C40.4937 34.0833 40.3525 33.3742 40.3525 32.5904C40.3525 31.8066 40.4937 31.0974 40.7782 30.4629C41.0626 29.8274 41.451 29.2827 41.9433 28.8308C42.4355 28.3779 43.0176 28.0298 43.6854 27.7867C44.3562 27.5436 45.0684 27.4216 45.8249 27.4216C46.527 27.4216 47.1665 27.5436 47.7405 27.7867C48.3135 28.0298 48.8007 28.3779 49.1992 28.8308C49.5976 29.2827 49.9053 29.8274 50.1212 30.4629C50.337 31.0974 50.446 31.8066 50.446 32.5904V33.5436H43.3918C43.5149 34.1237 43.7772 34.5867 44.1837 34.9307C44.5882 35.2756 45.0885 35.4481 45.6827 35.4481C46.182 35.4481 46.6047 35.3372 46.9497 35.1132C47.2947 34.8903 47.5942 34.6038 47.8515 34.2528L49.9799 35.8133Z" fill="white"/>
<path fill-rule="evenodd" clip-rule="evenodd" d="M58.9992 30.0976H56.324V33.381C56.324 33.6514 56.3371 33.8985 56.3644 34.1204C56.3916 34.3434 56.4531 34.536 56.5459 34.6984C56.6408 34.8609 56.787 34.9859 56.9827 35.0737C57.1784 35.1615 57.4387 35.2048 57.7625 35.2048C57.9259 35.2048 58.1377 35.1887 58.401 35.1544C58.6643 35.1201 58.864 35.0434 58.9992 34.9214V37.4543C58.6613 37.5764 58.3092 37.6571 57.9451 37.6985C57.5809 37.7388 57.2218 37.759 56.8718 37.759C56.3573 37.759 55.8842 37.7045 55.4515 37.5966C55.0197 37.4896 54.6414 37.3161 54.3166 37.0801C53.9928 36.843 53.7396 36.5354 53.557 36.1571C53.3745 35.7788 53.2837 35.3198 53.2837 34.7802V30.0976H51.3378V27.6655H53.2837V24.7462H56.324V27.6655H58.9992V30.0976Z" fill="white"/>
<path fill-rule="evenodd" clip-rule="evenodd" d="M27.6366 2.11867C27.6366 3.28881 26.6883 4.23804 25.5172 4.23804C24.3471 4.23804 23.3988 3.28881 23.3988 2.11867C23.3988 0.948524 24.3471 0.000305176 25.5172 0.000305176C26.6883 0.000305176 27.6366 0.948524 27.6366 2.11867Z" fill="#F2FE99"/>
<path fill-rule="evenodd" clip-rule="evenodd" d="M26.9549 1.23994C26.9186 2.45346 26.0389 3.45716 24.8819 3.6811C25.0786 3.7618 25.2925 3.80619 25.5164 3.80619C26.4475 3.80619 27.204 3.04963 27.204 2.11856C27.204 1.79677 27.1122 1.49617 26.9549 1.23994Z" fill="#D3DD92"/>
</svg>
