<svg width="385" height="186" viewBox="0 0 385 186" fill="none" xmlns="http://www.w3.org/2000/svg">
<mask id="mask0" mask-type="alpha" maskUnits="userSpaceOnUse" x="-116" y="0" width="501" height="186">
<path fill-rule="evenodd" clip-rule="evenodd" d="M-116 0H384.114V185.22H-116V0Z" fill="white"/>
</mask>
<g mask="url(#mask0)">
<path fill-rule="evenodd" clip-rule="evenodd" d="M134.04 0C251.885 0 351.495 78.015 384.114 185.22H-116C-83.415 78.015 16.194 0 134.04 0Z" fill="#9966FF"/>
</g>
<path fill-rule="evenodd" clip-rule="evenodd" d="M361.785 133.104C371.024 149.451 378.55 166.915 384.114 185.219H-104.486C-68.2608 84.4555 28.1992 12.3545 141.46 12.3545C234.035 12.3545 315.34 60.5145 361.785 133.104Z" fill="#321791"/>
<mask id="mask1" mask-type="alpha" maskUnits="userSpaceOnUse" x="-49" y="27" width="413" height="159">
<path fill-rule="evenodd" clip-rule="evenodd" d="M-48.0659 27.51H363.429V185.22H-48.0659V27.51Z" fill="white"/>
</mask>
<g mask="url(#mask1)">
<path fill-rule="evenodd" clip-rule="evenodd" d="M-28.0099 107.625C-16.9149 107.625 -7.95492 116.725 -7.95492 127.995C-7.95492 139.229 -16.9149 148.364 -28.0099 148.364C-39.0709 148.364 -48.0659 139.229 -48.0659 127.995C-48.0659 116.725 -39.0709 107.625 -28.0099 107.625ZM20.0101 110.95C25.3301 110.95 29.6351 115.325 29.6351 120.75C29.6351 126.14 25.3301 130.55 20.0101 130.55C14.6541 130.55 10.3491 126.14 10.3491 120.75C10.3491 115.325 14.6541 110.95 20.0101 110.95ZM127.529 48.335C131.064 48.335 133.899 51.205 133.899 54.774C133.899 58.31 131.064 61.215 127.529 61.215C124.029 61.215 121.194 58.31 121.194 54.774C121.194 51.205 124.029 48.335 127.529 48.335ZM145.87 27.51C148.425 27.51 150.455 29.575 150.455 32.13C150.455 34.685 148.425 36.785 145.87 36.785C143.349 36.785 141.319 34.685 141.319 32.13C141.319 29.575 143.349 27.51 145.87 27.51ZM73.6651 41.229C75.8001 41.229 77.5501 42.979 77.5501 45.185C77.5501 47.354 75.8001 49.14 73.6651 49.14C71.4951 49.14 69.7451 47.354 69.7451 45.185C69.7451 42.979 71.4951 41.229 73.6651 41.229ZM346.769 130.305C353.665 142.52 359.264 171.569 363.429 185.22H-0.780918C17.6301 134.015 42.0591 152.67 91.9341 131.564C115.21 121.694 155.67 56.385 182.55 56.385C208.345 56.385 233.545 74.34 256.085 83.439C293.849 98.7 325.104 96.425 346.769 130.305Z" fill="#220B78"/>
</g>
</svg>
