<svg width="501" height="186" viewBox="0 0 501 186" fill="none" xmlns="http://www.w3.org/2000/svg">
<mask id="mask0" mask-type="alpha" maskUnits="userSpaceOnUse" x="0" y="0" width="501" height="186">
<path fill-rule="evenodd" clip-rule="evenodd" d="M0 0H500.114V185.22H0V0Z" fill="white"/>
</mask>
<g mask="url(#mask0)">
<path fill-rule="evenodd" clip-rule="evenodd" d="M250.04 0C367.885 0 467.495 78.015 500.114 185.22H0C32.585 78.015 132.194 0 250.04 0" fill="#9966FF"/>
</g>
<path fill-rule="evenodd" clip-rule="evenodd" d="M477.785 133.104C487.024 149.45 494.55 166.915 500.114 185.219H11.5141C47.7391 84.4555 144.199 12.3545 257.46 12.3545C350.035 12.3545 431.34 60.5145 477.785 133.104" fill="#321791"/>
<mask id="mask1" mask-type="alpha" maskUnits="userSpaceOnUse" x="67" y="27" width="413" height="159">
<path fill-rule="evenodd" clip-rule="evenodd" d="M67.9342 27.51H479.429V185.22H67.9342V27.51Z" fill="white"/>
</mask>
<g mask="url(#mask1)">
<path fill-rule="evenodd" clip-rule="evenodd" d="M87.9902 107.625C99.0852 107.625 108.045 116.725 108.045 127.995C108.045 139.229 99.0852 148.364 87.9902 148.364C76.9292 148.364 67.9342 139.229 67.9342 127.995C67.9342 116.725 76.9292 107.625 87.9902 107.625M136.01 110.95C141.33 110.95 145.635 115.325 145.635 120.75C145.635 126.14 141.33 130.55 136.01 130.55C130.654 130.55 126.349 126.14 126.349 120.75C126.349 115.325 130.654 110.95 136.01 110.95M243.529 48.335C247.064 48.335 249.899 51.205 249.899 54.774C249.899 58.31 247.064 61.215 243.529 61.215C240.029 61.215 237.194 58.31 237.194 54.774C237.194 51.205 240.029 48.335 243.529 48.335M261.87 27.51C264.425 27.51 266.455 29.575 266.455 32.13C266.455 34.685 264.425 36.785 261.87 36.785C259.349 36.785 257.319 34.685 257.319 32.13C257.319 29.575 259.349 27.51 261.87 27.51M189.665 41.229C191.8 41.229 193.55 42.979 193.55 45.185C193.55 47.354 191.8 49.14 189.665 49.14C187.495 49.14 185.745 47.354 185.745 45.185C185.745 42.979 187.495 41.229 189.665 41.229M462.769 130.305C469.665 142.52 475.264 171.569 479.429 185.22H115.219C133.63 134.015 158.059 152.67 207.934 131.564C231.21 121.694 271.67 56.385 298.55 56.385C324.345 56.385 349.545 74.34 372.085 83.439C409.849 98.7 441.104 96.425 462.769 130.305" fill="#220B78"/>
</g>
</svg>
