<svg width="102" height="44" viewBox="0 0 102 44" fill="none" xmlns="http://www.w3.org/2000/svg">
<g opacity="0.725359">
<path fill-rule="evenodd" clip-rule="evenodd" d="M70.556 14.3622C74.7738 25.1627 69.4378 37.3379 58.6378 41.5558C47.8374 45.7741 35.6621 40.4377 31.4442 29.6372C27.226 18.8372 32.562 6.66235 43.3624 2.44408C54.1628 -1.7738 66.3377 3.56183 70.556 14.3622Z" fill="#ED7D28"/>
<path fill-rule="evenodd" clip-rule="evenodd" d="M63.1899 29.6838C52.3792 33.8953 40.1927 28.5674 35.9704 17.7848C34.8388 14.895 34.4007 11.9077 34.5639 9C30.0743 14.6506 28.6251 22.4591 31.4441 29.6591C35.6664 40.4418 47.8529 45.7696 58.6636 41.5581C66.5771 38.4753 71.5539 31.1348 72 23.1926C69.7656 26.0048 66.7822 28.2845 63.1899 29.6838Z" fill="#CF6D23"/>
<mask id="mask0" mask-type="alpha" maskUnits="userSpaceOnUse" x="0" y="0" width="102" height="44">
<path fill-rule="evenodd" clip-rule="evenodd" d="M0 0H102V44H0V0Z" fill="white"/>
</mask>
<g mask="url(#mask0)">
<path fill-rule="evenodd" clip-rule="evenodd" d="M64.877 6.42658C65.4503 6.93925 65.998 7.48484 66.516 8.06294C76.6325 5.75094 83.9664 5.78782 85.0862 8.66126C86.8226 13.1155 72.9694 22.699 54.1439 30.066C35.3184 37.4326 18.6496 39.7933 16.9132 35.3386C15.7933 32.4656 21.1609 27.4582 30.1642 22.2882C30.1535 21.5115 30.1876 20.7387 30.2624 19.9722C11.1979 28.934 -1.44609 37.856 0.132825 41.9055C2.14703 47.0731 26.5537 42.35 54.6465 31.3566C82.74 20.3628 103.881 7.26161 101.867 2.09441C100.289 -1.95545 84.9568 0.070272 64.877 6.42658Z" fill="#EDBA93"/>
</g>
<path fill-rule="evenodd" clip-rule="evenodd" d="M70.197 30.3334C70.5118 29.5727 70.7816 28.7944 71 28C66.579 30.3231 61.4342 32.6447 55.8466 34.7742C50.2591 36.904 44.8641 38.5996 40 39.8153C40.7125 40.255 41.4508 40.6487 42.2111 41C46.7458 39.5363 51.4895 37.8703 56.3454 36.0197C61.2008 34.1688 65.8457 32.2563 70.197 30.3334Z" fill="#CF6D23"/>
<path fill-rule="evenodd" clip-rule="evenodd" d="M46.7592 12.2273C47.4624 14.0274 46.5732 16.0562 44.7732 16.7594C42.9727 17.4622 40.9436 16.573 40.2408 14.7733C39.5376 12.9732 40.4268 10.9436 42.2268 10.2408C44.0273 9.53761 46.056 10.4268 46.7592 12.2273Z" fill="#CF6D23"/>
<path fill-rule="evenodd" clip-rule="evenodd" d="M63.7755 14.5214C64.2112 15.5933 63.9935 16.6771 63.289 16.9413C62.5844 17.2059 61.6601 16.5511 61.2245 15.4785C60.7888 14.4066 61.0065 13.3232 61.711 13.0586C62.4152 12.7943 63.3395 13.4491 63.7755 14.5214Z" fill="#CF6D23"/>
<path fill-rule="evenodd" clip-rule="evenodd" d="M59.1876 4.36912C59.9237 4.91336 60.2125 5.86086 59.8328 6.48559C59.4529 7.10993 58.5484 7.17511 57.8123 6.63088C57.0762 6.08664 56.7874 5.13914 57.1674 4.51441C57.5474 3.89007 58.4519 3.82489 59.1876 4.36912Z" fill="#CF6D23"/>
<path fill-rule="evenodd" clip-rule="evenodd" d="M49.6913 25.197C50.3552 26.7933 49.9131 28.4461 48.7032 28.8897C47.4928 29.3333 45.9735 28.3989 45.3091 26.8026C44.6444 25.2067 45.0873 23.5535 46.2972 23.1103C47.5071 22.6667 49.0269 23.6011 49.6913 25.197Z" fill="#CF6D23"/>
<path fill-rule="evenodd" clip-rule="evenodd" d="M39.646 28.9604C40.2733 30.3084 40.0447 31.6423 39.1358 31.9407C38.2261 32.2383 36.9807 31.3872 36.3538 30.0396C35.7269 28.6916 35.9551 27.3577 36.8644 27.0594C37.7732 26.7617 39.0187 27.6124 39.646 28.9604Z" fill="#CF6D23"/>
<path fill-rule="evenodd" clip-rule="evenodd" d="M62.9313 23.6365C63.1321 24.1505 62.8778 24.7305 62.3637 24.931C61.8493 25.1323 61.2693 24.8783 61.0688 24.3635C60.8679 23.8494 61.1218 23.2698 61.6363 23.069C62.1504 22.8677 62.73 23.122 62.9313 23.6365Z" fill="#CF6D23"/>
</g>
</svg>
