<svg width="60" height="59" viewBox="0 0 60 59" fill="none" xmlns="http://www.w3.org/2000/svg">
<path fill-rule="evenodd" clip-rule="evenodd" d="M50.705 16.4684C47.4512 3.97228 32.3536 -2.40551 19.7939 0.837436C30.3254 2.0103 36.8764 5.73428 40.0813 11.8905C37.1165 8.63267 33.2835 6.28205 29.0293 5.11272C16.5456 1.66979 3.45445 11.5175 0 23.9596C6.8872 14.647 14.051 10.9879 21.7625 12.1877C20.6057 12.3436 19.462 12.5839 18.3406 12.9066C14.0857 14.2056 10.2936 16.6928 7.41323 20.0735C-0.997831 29.8888 2.4295 45.8765 12.2939 54.2596C7.84707 46.1522 6.7679 39.369 8.74729 33.6831C8.35708 36.6415 8.54119 39.6471 9.28959 42.5363C12.5434 55.0325 27.6464 61.4049 40.2006 58.1673C29.6909 56.9944 23.1453 53.2705 19.9349 47.1305C22.901 50.3754 26.7265 52.7192 30.9707 53.892C43.4436 57.335 56.5456 47.4872 60 35.0451C53.1128 44.3578 45.9436 48.0169 38.2321 46.8116C39.391 46.658 40.5367 46.4177 41.6594 46.0927C45.9205 44.7916 49.7183 42.3007 52.603 38.915C61.0033 29.0943 57.5813 13.1066 47.7223 4.72897C52.1746 12.8634 53.2484 19.6249 51.269 25.3109C51.6622 22.3507 51.4781 19.3428 50.7267 16.4522L50.705 16.4684Z" fill="currentColor"/>
</svg>
