<?xml version="1.0" encoding="UTF-8"?>
<svg width="1769px" height="1001px" viewBox="0 0 1769 1001" version="1.1" xmlns="http://www.w3.org/2000/svg" xmlns:xlink="http://www.w3.org/1999/xlink">
    <title>编组case</title>
    <defs>
        <polygon id="path-1" points="0 0 9 0 9 9 0 9"></polygon>
        <polygon id="path-3" points="0 -6.24729234e-14 9 -6.24729234e-14 9 9 0 9"></polygon>
        <polygon id="path-5" points="0 0 3 0 3 3 0 3"></polygon>
        <polygon id="path-7" points="2.00871967e-13 0 3 0 3 3 2.00871967e-13 3"></polygon>
    </defs>
    <g id="页面-1" stroke="none" stroke-width="1" fill="none" fill-rule="evenodd" opacity="0.759515807">
        <g id="桌面端备份-3" transform="translate(93.000000, -60.000000)">
            <g id="编组" transform="translate(-93.000000, 60.000000)">
                <path d="M635.5,96 C636.873239,96 638,94.9007092 638,93.4822695 C638,92.0992908 636.873239,91 635.5,91 C634.126761,91 633,92.0992908 633,93.4822695 C633,94.9007092 634.126761,96 635.5,96" id="Fill-1" fill="#FFFFFF"></path>
                <path d="M461.5,64 C462.873239,64 464,62.8732394 464,61.5 C464,60.1267606 462.873239,59 461.5,59 C460.126761,59 459,60.1267606 459,61.5 C459,62.8732394 460.126761,64 461.5,64" id="Fill-3" fill="#FFFFFF"></path>
                <path d="M393.48227,280 C394.865248,280 396,278.865248 396,277.48227 C396,276.099291 394.865248,275 393.48227,275 C392.099291,275 391,276.099291 391,277.48227 C391,278.865248 392.099291,280 393.48227,280" id="Fill-5" fill="#FFFFFF"></path>
                <path d="M541.5,556 C542.873239,556 544,554.873239 544,553.501006 C544,552.126761 542.873239,551 541.5,551 C540.126761,551 539,552.126761 539,553.501006 C539,554.873239 540.126761,556 541.5,556" id="Fill-7" fill="#FFFFFF"></path>
                <path d="M397.5,690 C398.873239,690 400,688.899919 400,687.518233 C400,686.135535 398.873239,685 397.5,685 C396.126761,685 395,686.135535 395,687.518233 C395,688.899919 396.126761,690 397.5,690" id="Fill-9" fill="#FFFFFF"></path>
                <path d="M454.5,700 C455.873239,700 457,698.873239 457,697.501006 C457,696.126761 455.873239,695 454.5,695 C453.126761,695 452,696.126761 452,697.501006 C452,698.873239 453.126761,700 454.5,700" id="Fill-11" fill="#FFFFFF"></path>
                <path d="M686.5,904 C687.873239,904 689,902.900932 689,901.48278 C689,900.099068 687.873239,899 686.5,899 C685.126761,899 684,900.099068 684,901.48278 C684,902.900932 685.126761,904 686.5,904" id="Fill-13" fill="#FFFFFF"></path>
                <path d="M614.5,952 C615.873239,952 617,950.900709 617,949.483283 C617,948.099291 615.873239,947 614.5,947 C613.126761,947 612,948.099291 612,949.483283 C612,950.900709 613.126761,952 614.5,952" id="Fill-15" fill="#FFFFFF"></path>
                <path d="M137.5,730 C138.873239,730 140,728.873239 140,727.5 C140,726.126761 138.873239,725 137.5,725 C136.126761,725 135,726.126761 135,727.5 C135,728.873239 136.126761,730 137.5,730" id="Fill-17" fill="#FFFFFF"></path>
                <path d="M805.5,679 C806.873239,679 808,677.865478 808,676.48278 C808,675.099068 806.873239,674 805.5,674 C804.126761,674 803,675.099068 803,676.48278 C803,677.865478 804.126761,679 805.5,679" id="Fill-19" fill="#FFFFFF"></path>
                <path d="M1053.4995,792 C1054.87301,792 1056,790.874245 1056,789.501006 C1056,788.126761 1054.87301,787 1053.4995,787 C1052.12699,787 1051,788.126761 1051,789.501006 C1051,790.874245 1052.12699,792 1053.4995,792" id="Fill-21" fill="#FFFFFF"></path>
                <path d="M1285.5,571 C1286.87324,571 1288,569.873239 1288,568.501006 C1288,567.126761 1286.87324,566 1285.5,566 C1284.12676,566 1283,567.126761 1283,568.501006 C1283,569.873239 1284.12676,571 1285.5,571" id="Fill-23" fill="#FFFFFF"></path>
                <path d="M1455.5005,357 C1456.87301,357 1458,355.873239 1458,354.5 C1458,353.126761 1456.87301,352 1455.5005,352 C1454.12699,352 1453,353.126761 1453,354.5 C1453,355.873239 1454.12699,357 1455.5005,357" id="Fill-25" fill="#FFFFFF"></path>
                <path d="M1412.4995,253 C1413.87301,253 1415,251.873239 1415,250.5 C1415,249.126761 1413.87301,248 1412.4995,248 C1411.12598,248 1410,249.126761 1410,250.5 C1410,251.873239 1411.12598,253 1412.4995,253" id="Fill-27" fill="#FFFFFF"></path>
                <path d="M1532.48277,197 C1533.86603,197 1535,195.900709 1535,194.51773 C1535,193.134752 1533.86603,192 1532.48277,192 C1531.09951,192 1530,193.134752 1530,194.51773 C1530,195.900709 1531.09951,197 1532.48277,197" id="Fill-29" fill="#FFFFFF"></path>
                <path d="M1617.5,190 C1618.87324,190 1620,188.865248 1620,187.48227 C1620,186.099291 1618.87324,185 1617.5,185 C1616.12676,185 1615,186.099291 1615,187.48227 C1615,188.865248 1616.12676,190 1617.5,190" id="Fill-31" fill="#FFFFFF"></path>
                <path d="M1511.4995,147 C1512.87301,147 1514,145.900709 1514,144.48227 C1514,143.099291 1512.87301,142 1511.4995,142 C1510.12699,142 1509,143.099291 1509,144.48227 C1509,145.900709 1510.12699,147 1511.4995,147" id="Fill-33" fill="#FFFFFF"></path>
                <path d="M1351.5,17 C1352.87324,17 1354,15.8732394 1354,14.5 C1354,13.1267606 1352.87324,12 1351.5,12 C1350.12676,12 1349,13.1267606 1349,14.5 C1349,15.8732394 1350.12676,17 1351.5,17" id="Fill-35" fill="#FFFFFF"></path>
                <path d="M1747.5005,17 C1748.87402,17 1750,15.8732394 1750,14.5 C1750,13.1267606 1748.87402,12 1747.5005,12 C1746.12699,12 1745,13.1267606 1745,14.5 C1745,15.8732394 1746.12699,17 1747.5005,17" id="Fill-37" fill="#FFFFFF"></path>
                <path d="M1738.5,226 C1739.87324,226 1741,224.900709 1741,223.51773 C1741,222.134752 1739.87324,221 1738.5,221 C1737.12676,221 1736,222.134752 1736,223.51773 C1736,224.900709 1737.12676,226 1738.5,226" id="Fill-39" fill="#FFFFFF"></path>
                <path d="M1604.5005,492 C1605.87301,492 1607,490.873239 1607,489.5 C1607,488.126761 1605.87301,487 1604.5005,487 C1603.12699,487 1602,488.126761 1602,489.5 C1602,490.873239 1603.12699,492 1604.5005,492" id="Fill-41" fill="#FFFFFF"></path>
                <path d="M1724.5005,608 C1725.87301,608 1727,606.873239 1727,605.5 C1727,604.126761 1725.87301,603 1724.5005,603 C1723.12699,603 1722,604.126761 1722,605.5 C1722,606.873239 1723.12699,608 1724.5005,608" id="Fill-43" fill="#FFFFFF"></path>
                <path d="M1660.51723,801 C1661.90049,801 1663,799.865478 1663,798.48278 C1663,797.099068 1661.90049,796 1660.51723,796 C1659.13498,796 1658,797.099068 1658,798.48278 C1658,799.865478 1659.13498,801 1660.51723,801" id="Fill-45" fill="#FFFFFF"></path>
                <path d="M1315.5005,784 C1316.87301,784 1318,782.873239 1318,781.501006 C1318,780.126761 1316.87301,779 1315.5005,779 C1314.12699,779 1313,780.126761 1313,781.501006 C1313,782.873239 1314.12699,784 1315.5005,784" id="Fill-47" fill="#FFFFFF"></path>
                <path d="M1176.5005,917 C1177.87402,917 1179,915.900709 1179,914.51773 C1179,913.135765 1177.87402,912 1176.5005,912 C1175.12699,912 1174,913.135765 1174,914.51773 C1174,915.900709 1175.12699,917 1176.5005,917" id="Fill-49" fill="#FFFFFF"></path>
                <path d="M1051.51824,109 C1052.90049,109 1054,107.873239 1054,106.5 C1054,105.126761 1052.90049,104 1051.51824,104 C1050.13498,104 1049,105.126761 1049,106.5 C1049,107.873239 1050.13498,109 1051.51824,109" id="Fill-51" fill="#FFFFFF"></path>
                <path d="M86.5177305,31 C87.9007092,31 89,29.8732394 89,28.5 C89,27.1267606 87.9007092,26 86.5177305,26 C85.0992908,26 84,27.1267606 84,28.5 C84,29.8732394 85.0992908,31 86.5177305,31" id="Fill-53" fill="#FFFFFF"></path>
                <path d="M102.5,45 C105,45 107,43 107,40.5 C107,38.0384615 105,36 102.5,36 C100.038462,36 98,38.0384615 98,40.5 C98,43 100.038462,45 102.5,45" id="Fill-55" fill="#FFFFFF"></path>
                <g transform="translate(242.000000, 0.000000)">
                    <mask id="mask-2" fill="white">
                        <use xlink:href="#path-1"></use>
                    </mask>
                    <g id="Clip-58"></g>
                    <path d="M4.5,9 C6.96153846,9 9,7 9,4.5 C9,2.03846154 6.96153846,-1.24930591e-13 4.5,-1.24930591e-13 C2,-1.24930591e-13 0,2.03846154 0,4.5 C0,7 2,9 4.5,9" id="Fill-57" fill="#FFFFFF" mask="url(#mask-2)"></path>
                </g>
                <path d="M299.5,60 C301.961538,60 304,57.9615385 304,55.5 C304,53 301.961538,51 299.5,51 C297,51 295,53 295,55.5 C295,57.9615385 297,60 299.5,60" id="Fill-59" fill="#FFFFFF"></path>
                <path d="M637.5,35 C640,35 642,32.9702128 642,30.5191489 C642,28.0297872 640,26 637.5,26 C635.038462,26 633,28.0297872 633,30.5191489 C633,32.9702128 635.038462,35 637.5,35" id="Fill-61" fill="#FFFFFF"></path>
                <path d="M232.5,390 C234.961538,390 237,388 237,385.5 C237,383.038462 234.961538,381 232.5,381 C230,381 228,383.038462 228,385.5 C228,388 230,390 232.5,390" id="Fill-63" fill="#FFFFFF"></path>
                <path d="M562.5,766 C564.961538,766 567,764 567,761.498901 C567,759.038462 564.961538,757 562.5,757 C560,757 558,759.038462 558,761.498901 C558,764 560,766 562.5,766" id="Fill-65" fill="#FFFFFF"></path>
                <g transform="translate(0.000000, 929.000000)">
                    <mask id="mask-4" fill="white">
                        <use xlink:href="#path-3"></use>
                    </mask>
                    <g id="Clip-68"></g>
                    <path d="M4.49994505,9 C6.99997558,9 9,6.96238857 9,4.49945048 C9,2.03761143 6.99997558,-6.24729234e-14 4.49994505,-6.24729234e-14 C2.03837654,-6.24729234e-14 -0.000109891452,2.03761143 -0.000109891452,4.49945048 C-0.000109891452,6.96238857 2.03837654,9 4.49994505,9" id="Fill-67" fill="#FFFFFF" mask="url(#mask-4)"></path>
                </g>
                <path d="M1027.49945,975 C1029.99915,975 1032,973.000855 1032,970.49945 C1032,968.037611 1029.99915,966 1027.49945,966 C1025.03821,966 1023,968.037611 1023,970.49945 C1023,973.000855 1025.03821,975 1027.49945,975" id="Fill-69" fill="#FFFFFF"></path>
                <path d="M1231.5,497 C1233.9989,497 1236,494.961538 1236,492.5 C1236,490 1233.9989,488 1231.5,488 C1229.03846,488 1227,490 1227,492.5 C1227,494.961538 1229.03846,497 1231.5,497" id="Fill-71" fill="#FFFFFF"></path>
                <path d="M1657.5,716 C1660,716 1662,714 1662,711.5 C1662,709.038462 1660,707 1657.5,707 C1655.03846,707 1653,709.038462 1653,711.5 C1653,714 1655.03846,716 1657.5,716" id="Fill-73" fill="#FFFFFF"></path>
                <path d="M954.5,219 C957,219 959,216.961538 959,214.5 C959,212 957,210 954.5,210 C952.038462,210 950,212 950,214.5 C950,216.961538 952.038462,219 954.5,219" id="Fill-75" fill="#FFFFFF"></path>
                <path d="M1652.49945,47 C1654.96069,47 1657,44.9615385 1657,42.5 C1657,40 1654.96069,38 1652.49945,38 C1650.03931,38 1648,40 1648,42.5 C1648,44.9615385 1650.03931,47 1652.49945,47" id="Fill-77" fill="#FFFFFF"></path>
                <path d="M676.484536,462 C677.319588,462 678,461.319588 678,460.515464 C678,459.680412 677.319588,459 676.484536,459 C675.680412,459 675,459.680412 675,460.515464 C675,461.319588 675.680412,462 676.484536,462" id="Fill-79" fill="#FFFFFF"></path>
                <path d="M674.515464,149 C675.350515,149 676,148.319588 676,147.484536 C676,146.680412 675.350515,146 674.515464,146 C673.680412,146 673,146.680412 673,147.484536 C673,148.319588 673.680412,149 674.515464,149" id="Fill-81" fill="#FFFFFF"></path>
                <path d="M984.515464,44 C985.349632,44 986,43.3189046 986,42.4849823 C986,41.6501767 985.349632,41 984.515464,41 C983.680412,41 983,41.6501767 983,42.4849823 C983,43.3189046 983.680412,44 984.515464,44" id="Fill-83" fill="#FFFFFF"></path>
                <path d="M1361.51546,299 C1362.31959,299 1363,298.319588 1363,297.484536 C1363,296.680412 1362.31959,296 1361.51546,296 C1360.68041,296 1360,296.680412 1360,297.484536 C1360,298.319588 1360.68041,299 1361.51546,299" id="Fill-85" fill="#FFFFFF"></path>
                <path d="M1631.5159,299 C1632.34982,299 1633,298.319588 1633,297.484536 C1633,296.680412 1632.34982,296 1631.5159,296 C1630.6811,296 1630,296.680412 1630,297.484536 C1630,298.319588 1630.6811,299 1631.5159,299" id="Fill-87" fill="#FFFFFF"></path>
                <path d="M1696.51502,541 C1697.3189,541 1698,540.350707 1698,539.515901 C1698,538.681095 1697.3189,538 1696.51502,538 C1695.6811,538 1695,538.681095 1695,539.515901 C1695,540.350707 1695.6811,541 1696.51502,541" id="Fill-89" fill="#FFFFFF"></path>
                <path d="M1066.5,561 C1067.32653,561 1068,560.318905 1068,559.484099 C1068,558.650177 1067.32653,558 1066.5,558 C1065.67347,558 1065,558.650177 1065,559.484099 C1065,560.318905 1065.67347,561 1066.5,561" id="Fill-91" fill="#FFFFFF"></path>
                <path d="M1170.5159,772 C1171.3189,772 1172,771.319588 1172,770.515464 C1172,769.680412 1171.3189,769 1170.5159,769 C1169.6811,769 1169,769.680412 1169,770.515464 C1169,771.319588 1169.6811,772 1170.5159,772" id="Fill-93" fill="#FFFFFF"></path>
                <path d="M403.515464,418 C404.319588,418 405,417.350515 405,416.515464 C405,415.680412 404.319588,415 403.515464,415 C402.680412,415 402,415.680412 402,416.515464 C402,417.350515 402.680412,418 403.515464,418" id="Fill-95" fill="#FFFFFF"></path>
                <path d="M219.484536,207 C220.319588,207 221,206.319588 221,205.515464 C221,204.680412 220.319588,204 219.484536,204 C218.680412,204 218,204.680412 218,205.515464 C218,206.319588 218.680412,207 219.484536,207" id="Fill-97" fill="#FFFFFF"></path>
                <path d="M214.484536,343 C215.319588,343 216,342.319588 216,341.484536 C216,340.680412 215.319588,340 214.484536,340 C213.649485,340 213,340.680412 213,341.484536 C213,342.319588 213.649485,343 214.484536,343" id="Fill-99" fill="#FFFFFF"></path>
                <path d="M113.484536,532 C114.319588,532 115,531.318905 115,530.484982 C115,529.650177 114.319588,529 113.484536,529 C112.649485,529 112,529.650177 112,530.484982 C112,531.318905 112.649485,532 113.484536,532" id="Fill-101" fill="#FFFFFF"></path>
                <path d="M174.515464,165 C175.319588,165 176,164.350515 176,163.515464 C176,162.680412 175.319588,162 174.515464,162 C173.680412,162 173,162.680412 173,163.515464 C173,164.350515 173.680412,165 174.515464,165" id="Fill-103" fill="#FFFFFF"></path>
                <path d="M342.515464,326 C343.350515,326 344,325.326531 344,324.5 C344,323.673469 343.350515,323 342.515464,323 C341.680412,323 341,323.673469 341,324.5 C341,325.326531 341.680412,326 342.515464,326" id="Fill-105" fill="#FFFFFF"></path>
                <path d="M150.484536,929 C151.319588,929 152,928.319588 152,927.515464 C152,926.680412 151.319588,926 150.484536,926 C149.649485,926 149,926.680412 149,927.515464 C149,928.319588 149.649485,929 150.484536,929" id="Fill-107" fill="#FFFFFF"></path>
                <g transform="translate(527.000000, 998.000000)">
                    <mask id="mask-6" fill="white">
                        <use xlink:href="#path-5"></use>
                    </mask>
                    <g id="Clip-110"></g>
                    <path d="M1.51546392,3.00026504 C2.35051546,3.00026504 3,2.31910946 3,1.48511353 C3,0.681155579 2.35051546,0 1.51546392,0 C0.680412371,0 0,0.681155579 0,1.48511353 C0,2.31910946 0.680412371,3.00026504 1.51546392,3.00026504" id="Fill-109" fill="#FFFFFF" mask="url(#mask-6)"></path>
                </g>
                <g transform="translate(1766.000000, 938.000000)">
                    <mask id="mask-8" fill="white">
                        <use xlink:href="#path-7"></use>
                    </mask>
                    <g id="Clip-112"></g>
                    <path d="M1.48506979,3 C2.31992461,3 3.00017669,2.32585252 3.00017669,1.49956281 C3.00017669,0.674147479 2.31992461,0 1.48506979,0 C0.68113552,0 2.00871967e-13,0.674147479 2.00871967e-13,1.49956281 C2.00871967e-13,2.32585252 0.68113552,3 1.48506979,3" id="Fill-111" fill="#FFFFFF" mask="url(#mask-8)"></path>
                </g>
                <path d="M1379.5,679 C1380.32566,679 1381,678.318905 1381,677.484099 C1381,676.650177 1380.32566,676 1379.5,676 C1378.67347,676 1378,676.650177 1378,677.484099 C1378,678.318905 1378.67347,679 1379.5,679" id="Fill-113" fill="#FFFFFF"></path>
            </g>
        </g>
    </g>
</svg>